<svg width="235" height="235" viewBox="0 0 235 235" fill="none" xmlns="http://www.w3.org/2000/svg">
<rect x="0.5" y="0.5" width="234" height="234" rx="3.5" fill="white" stroke="#E8E7EA"/>
<g clip-path="url(#clip0_12858_20704)">
<path d="M93.125 16H17V92.125H93.125V16ZM80.4375 79.4375H29.6875V28.6875H80.4375V79.4375Z" fill="#3F405B"/>
<path d="M42.375 41.375H67.75V66.75H42.375V41.375Z" fill="#3F405B"/>
<path d="M17 219H93.125V142.875H17V219ZM29.6875 155.562H80.4375V206.312H29.6875V155.562Z" fill="#3F405B"/>
<path d="M42.375 168.25H67.75V193.625H42.375V168.25Z" fill="#3F405B"/>
<path d="M143.875 16V92.125H220V16H143.875ZM207.312 79.4375H156.562V28.6875H207.312V79.4375Z" fill="#3F405B"/>
<path d="M169.25 41.375H194.625V66.75H169.25V41.375Z" fill="#3F405B"/>
<path d="M42.375 104.812H17V130.188H55.0625V117.5H42.375V104.812Z" fill="#3F405B"/>
<path d="M105.813 130.188H131.188V155.562H105.813V130.188Z" fill="#3F405B"/>
<path d="M55.0625 104.812H80.4375V117.5H55.0625V104.812Z" fill="#3F405B"/>
<path d="M131.188 168.25H105.813V180.938H118.5V193.625H131.188V180.938V168.25Z" fill="#3F405B"/>
<path d="M93.125 104.812V117.5H80.4375V130.188H105.812V104.812H93.125Z" fill="#3F405B"/>
<path d="M118.5 66.75H131.188V92.125H118.5V66.75Z" fill="#3F405B"/>
<path d="M131.188 117.5V130.188H156.562V104.812H118.5V117.5H131.188Z" fill="#3F405B"/>
<path d="M105.813 92.125H118.5V104.812H105.813V92.125Z" fill="#3F405B"/>
<path d="M131.187 193.625H156.562V219H131.187V193.625Z" fill="#3F405B"/>
<path d="M105.813 193.625H118.5V219H105.813V193.625Z" fill="#3F405B"/>
<path d="M131.187 155.562H143.875V168.25H131.187V155.562Z" fill="#3F405B"/>
<path d="M131.188 54.0625V28.6875H118.5V16H105.813V66.75H118.5V54.0625H131.188Z" fill="#3F405B"/>
<path d="M169.25 193.625H181.938V219H169.25V193.625Z" fill="#3F405B"/>
<path d="M169.577 168.484H194.952V181.172H169.577V168.484Z" fill="#3F405B"/>
<path d="M156.563 180.938H169.25V193.625H156.563V180.938Z" fill="#3F405B"/>
<path d="M143.875 168.25H156.562V180.938H143.875V168.25Z" fill="#3F405B"/>
<path d="M194.625 142.875V155.562H207.313V168.25H220V142.875H207.313H194.625Z" fill="#3F405B"/>
<path d="M207.313 180.938H194.625V219H220V193.625H207.313V180.938Z" fill="#3F405B"/>
<path d="M143.875 142.875V155.562H181.937V130.188H156.562V142.875H143.875Z" fill="#3F405B"/>
<path d="M169.25 104.812V117.5H194.625V130.188H220V104.812H194.625H169.25Z" fill="#3F405B"/>
</g>
<defs>
<clipPath id="clip0_12858_20704">
<rect width="203" height="203" fill="white" transform="translate(17 16)"/>
</clipPath>
</defs>
</svg>
