<svg width="12" height="12" viewBox="0 0 12 12" fill="none" xmlns="http://www.w3.org/2000/svg">
<path fill-rule="evenodd" clip-rule="evenodd" d="M12 6C12 9.31371 9.31371 12 6 12C2.68629 12 0 9.31371 0 6C0 2.68629 2.68629 0 6 0C9.31371 0 12 2.68629 12 6ZM6.66704 10C6.66704 10.3682 6.36856 10.6667 6.00037 10.6667C5.63218 10.6667 5.33371 10.3682 5.33371 10C5.33371 9.63183 5.63218 9.33336 6.00037 9.33336C6.36856 9.33336 6.66704 9.63183 6.66704 10ZM6.00028 0.99993C4.34342 0.99993 3.00028 2.34308 3.00028 3.99993H5.00028C5.00028 3.44765 5.44799 2.99993 6.00028 2.99993H6.06315C6.58071 2.99993 7.00028 3.4195 7.00028 3.93706V4.27917C7.00028 4.47823 6.8729 4.65496 6.68405 4.71791C5.67852 5.05309 5.00028 5.9941 5.00028 7.05402V8.6666H7.00028V7.05402C7.00028 6.85496 7.12766 6.67823 7.31651 6.61528C8.32204 6.2801 9.00028 5.3391 9.00028 4.27917V3.93706C9.00028 2.31493 7.68528 0.99993 6.06315 0.99993H6.00028Z" fill="#C6C5D7"/>
</svg>
