<svg width="10" height="5" viewBox="0 0 10 5" fill="none" xmlns="http://www.w3.org/2000/svg">
<path fill-rule="evenodd" clip-rule="evenodd" d="M0.104605 0.100285C0.244077 -0.0334287 0.470208 -0.0334287 0.609681 0.100285L5 4.3093L9.39032 0.100285C9.52979 -0.0334291 9.75592 -0.0334291 9.8954 0.100285C10.0349 0.233998 10.0349 0.45079 9.8954 0.584504L5.50584 4.79279C5.44128 4.8575 5.36385 4.90918 5.2781 4.94477C5.19031 4.9812 5.09566 5 5 5C4.90434 5 4.80969 4.9812 4.7219 4.94477C4.63615 4.90918 4.55872 4.8575 4.49416 4.79279L0.104605 0.584504C-0.0348685 0.450791 -0.0348685 0.233998 0.104605 0.100285Z" fill="#403E5B"/>
</svg>
