<svg width="9" height="9" viewBox="0 0 9 9" fill="none" xmlns="http://www.w3.org/2000/svg">
<path d="M4.02569 0.174591C2.3268 0.33532 0.878517 1.44659 0.275353 3.05215C0.0835156 3.56199 -0.0167237 4.16688 0.00228724 4.71128C0.0109286 4.97744 0.0351242 5.05694 0.119809 5.11915C0.169929 5.15545 0.700506 5.27124 0.814571 5.27124C0.900984 5.27124 0.980484 5.22458 1.02715 5.14681C1.0548 5.09841 1.05826 5.06731 1.05307 4.95151C1.03752 4.7061 1.04616 4.24638 1.06863 4.1133C1.18615 3.36669 1.51452 2.7186 2.03818 2.19493C2.56185 1.67127 3.19612 1.34981 3.95655 1.22365C4.12765 1.19599 4.66687 1.19599 4.86389 1.22538C5.3841 1.30142 5.90604 1.50535 6.32428 1.7957C6.4539 1.88557 6.68721 2.07395 6.68721 2.08778C6.68721 2.09296 6.6129 2.17246 6.52303 2.26406C6.43316 2.35566 6.35193 2.45244 6.34156 2.47837C6.29835 2.59416 6.3381 2.72205 6.43661 2.78254C6.46599 2.79982 6.65265 2.8655 6.8514 2.92944C7.05188 2.99166 7.43728 3.11782 7.71034 3.20769C7.98168 3.29756 8.22709 3.37015 8.25475 3.37015C8.37227 3.37015 8.4846 3.24399 8.4846 3.11091C8.4846 3.01067 8.12685 1.22019 8.09229 1.14587C8.06291 1.08366 7.98687 1.03008 7.90391 1.0128C7.81577 0.993788 7.72763 1.04391 7.57381 1.19772L7.43036 1.33771L7.35778 1.26858C7.10199 1.02317 6.63364 0.718994 6.25515 0.553081C5.53964 0.236808 4.76365 0.103732 4.02569 0.174591Z" fill="#858585"/>
<path d="M7.95443 3.89897C7.81098 3.94736 7.76951 4.05279 7.79716 4.29993C7.8179 4.50386 7.80407 4.89618 7.76778 5.10703C7.63989 5.83463 7.32188 6.45334 6.80859 6.96491C6.28493 7.48857 5.65065 7.81003 4.89022 7.93619C4.71912 7.96385 4.1799 7.96385 3.98288 7.93447C3.50242 7.86533 3.01332 7.68214 2.61755 7.42463C2.46719 7.32784 2.15956 7.08934 2.15956 7.07033C2.15956 7.06688 2.23388 6.98738 2.32375 6.89578C2.41361 6.80418 2.49484 6.7074 2.50521 6.68147C2.54842 6.56568 2.50694 6.4326 2.4067 6.37557C2.38078 6.36002 2.18376 6.29089 1.96945 6.22348C1.75515 6.15435 1.36629 6.02819 1.10359 5.94178C0.579927 5.76895 0.552275 5.76549 0.446851 5.85364C0.382905 5.90894 0.358709 5.96425 0.360437 6.05757C0.360437 6.15435 0.721645 7.92928 0.754482 7.99668C0.783862 8.0589 0.859906 8.11248 0.941134 8.12976C1.03792 8.1505 1.10532 8.11248 1.26086 7.95866L1.40949 7.81176L1.57195 7.95175C2.55879 8.79341 3.89992 9.1598 5.18575 8.93513C6.87945 8.64133 8.28107 7.34167 8.70622 5.67735C8.8272 5.20208 8.87559 4.65422 8.83239 4.27055C8.80646 4.05797 8.75634 4.01822 8.41415 3.94909C8.07195 3.87823 8.02874 3.87477 7.95443 3.89897Z" fill="#858585"/>
</svg>
