<svg width="9" height="9" viewBox="0 0 9 9" fill="none" xmlns="http://www.w3.org/2000/svg">
<path d="M3.17598 0.178101C3.00834 0.219579 2.59183 0.397591 2.33777 0.53758C1.29563 1.11482 0.514455 2.08438 0.184357 3.2112C-0.00575221 3.85757 -0.0506871 4.58345 0.0581935 5.22463C0.218922 6.17345 0.645803 6.99783 1.32674 7.67877C2.03706 8.39081 2.89946 8.82115 3.91049 8.96978C4.16109 9.00607 4.79191 9.01126 5.04251 8.97669C5.80813 8.87645 6.46832 8.62585 7.07149 8.20934C7.81637 7.69432 8.4178 6.93561 8.72716 6.11469C8.8395 5.81743 8.85506 5.68953 8.80148 5.50979C8.73062 5.27302 8.49212 5.10192 8.23115 5.10192C7.94599 5.10192 7.75415 5.25401 7.64354 5.56683C7.57614 5.75694 7.39467 6.12678 7.28925 6.28578C7.10605 6.56576 6.89002 6.80945 6.64288 7.01857C5.32248 8.12466 3.39893 8.0417 2.18223 6.82327C1.25761 5.89865 0.963804 4.54024 1.42352 3.31663C1.44945 3.24923 1.51339 3.10751 1.56524 3.00381C1.95237 2.24165 2.58319 1.68515 3.41794 1.36887C3.59595 1.30147 3.62706 1.28419 3.72211 1.18914C3.85346 1.05952 3.90358 0.940265 3.90358 0.75707C3.90358 0.560047 3.82926 0.40796 3.67545 0.292166C3.52855 0.179829 3.34708 0.13835 3.17598 0.178101Z" fill="#858585"/>
<path d="M5.57747 0.184989C5.38045 0.240294 5.23182 0.375098 5.16269 0.558295C5.12985 0.644708 5.12467 0.686186 5.13158 0.805436C5.14713 1.09751 5.28194 1.24787 5.6466 1.3844C6.58505 1.73351 7.26426 2.41963 7.63411 3.39092C7.72398 3.62251 7.8173 3.74176 7.9763 3.81953C8.06272 3.86274 8.09382 3.86792 8.239 3.86792C8.38417 3.86792 8.41528 3.86274 8.50169 3.81953C8.7039 3.71929 8.84389 3.50844 8.84389 3.29759C8.84389 2.97268 8.38763 2.07571 7.97803 1.59352C7.48375 1.01456 6.87021 0.568664 6.19619 0.300783C5.85745 0.165979 5.73302 0.141783 5.57747 0.184989Z" fill="#858585"/>
</svg>
