<svg width="9" height="9" viewBox="0 0 9 9" fill="none" xmlns="http://www.w3.org/2000/svg">
<path d="M6.34032 0.172707C6.29193 0.186533 5.61272 0.8571 3.15686 3.31296C0.350161 6.11966 0.03216 6.44285 0.0148773 6.50852C0.00277948 6.55864 -0.00240531 6.92158 0.00105122 7.6751L0.00623601 8.76909L0.0477143 8.83476C0.0701818 8.87106 0.120301 8.92118 0.158323 8.9471L0.229182 8.99376L1.32317 8.99895C2.08015 9.00241 2.44136 8.99722 2.49148 8.98512C2.55715 8.96784 2.87861 8.64984 5.66284 5.86906C7.36691 4.165 8.77717 2.74782 8.79446 2.71844C8.84112 2.64585 8.85495 2.53006 8.82902 2.435C8.81001 2.36415 8.71496 2.26218 7.75231 1.29781C7.16989 0.715382 6.66869 0.222826 6.63931 0.203815C6.57364 0.162337 6.42674 0.146783 6.34032 0.172707ZM7.23902 1.76962L8.0081 2.5387L5.1219 5.4249L2.2357 8.3111H1.46316H0.6889V7.53857V6.7643L3.56992 3.88329C5.15646 2.29674 6.45612 1.00054 6.4613 1.00054C6.46649 1.00054 6.8156 1.3462 7.23902 1.76962Z" fill="#635BFF"/>
<path d="M6.97838 5.63746C6.77272 5.74634 6.73643 6.01077 6.90234 6.17841C7.01295 6.28902 7.04579 6.29247 7.87881 6.28556C8.66344 6.28037 8.6427 6.2821 8.7464 6.17322C8.90886 6.00212 8.86392 5.73943 8.65307 5.63055C8.59258 5.59944 8.54246 5.59771 7.82178 5.59771H7.05443L6.97838 5.63746Z" fill="#635BFF"/>
<path d="M5.67705 6.97183C5.57854 7.00639 5.52669 7.0496 5.48175 7.13601C5.43509 7.22242 5.42991 7.34859 5.4662 7.435C5.49558 7.5024 5.58891 7.594 5.65458 7.6182C5.68742 7.63202 6.17133 7.63721 7.14607 7.63721C8.53041 7.63721 8.5909 7.63548 8.65312 7.60437C8.86397 7.49549 8.9089 7.23279 8.74645 7.0617C8.63929 6.94763 8.73953 6.95454 7.17027 6.95109C5.97604 6.94763 5.73408 6.95109 5.67705 6.97183Z" fill="#635BFF"/>
<path d="M4.30472 8.33012C4.22349 8.35432 4.11634 8.46665 4.09214 8.55652C4.05239 8.71034 4.11288 8.87107 4.24423 8.9523L4.3099 8.99377H6.46159H8.61328L8.67895 8.9523C8.71525 8.92983 8.76537 8.87971 8.79129 8.84169C8.83104 8.78293 8.83795 8.75182 8.83795 8.65676C8.83795 8.56171 8.83104 8.5306 8.79129 8.47184C8.76537 8.43382 8.71525 8.3837 8.67895 8.36123L8.61328 8.31975L6.48751 8.31629C5.17749 8.31457 4.33928 8.31975 4.30472 8.33012Z" fill="#635BFF"/>
</svg>
