<svg width="170" height="43" viewBox="0 0 170 43" fill="none" xmlns="http://www.w3.org/2000/svg">
<path d="M0 6.09253V25.4006H4.41328V19.3324H7.3095C9.21273 19.3324 10.8125 18.698 12.1089 17.4016C13.4053 16.1052 14.0673 14.5605 14.0673 12.7125C14.0673 10.8644 13.4053 9.31974 12.1089 8.02334C10.8125 6.72694 9.21273 6.09253 7.3095 6.09253H0ZM4.41328 15.1949V10.23H7.3095C8.66107 10.23 9.65405 11.3057 9.65405 12.7125C9.65405 14.1192 8.66107 15.1949 7.3095 15.1949H4.41328Z" fill="white"/>
<path d="M25.3094 12.9055C24.3439 11.7746 22.9648 11.223 21.1995 11.223C19.379 11.223 17.8344 11.9401 16.538 13.3469C15.2416 14.7536 14.6071 16.4637 14.6071 18.5049C14.6071 20.546 15.2416 22.2838 16.538 23.6905C17.8344 25.0972 19.379 25.7868 21.1995 25.7868C22.9648 25.7868 24.3439 25.2351 25.3094 24.1042V25.4006H29.4468V11.6091H25.3094V12.9055ZM19.6548 20.9598C19.048 20.3529 18.7446 19.5255 18.7446 18.5049C18.7446 17.4843 19.048 16.6568 19.6548 16.05C20.2617 15.4432 21.0616 15.1398 22.027 15.1398C22.9924 15.1398 23.7923 15.4432 24.3991 16.05C25.0059 16.6568 25.3094 17.4843 25.3094 18.5049C25.3094 19.5255 25.0059 20.3529 24.3991 20.9598C23.7923 21.5666 22.9924 21.87 22.027 21.87C21.0616 21.87 20.2617 21.5666 19.6548 20.9598Z" fill="white"/>
<path d="M38.5781 20.0495L35.5164 11.6091H30.9652L36.4542 24.7662C35.8198 26.4488 34.9095 27.0556 33.0063 27.0556V30.9172C36.8955 31.1103 39.3228 29.3174 40.8675 24.9869L45.5842 11.6091H41.1709L38.5781 20.0495Z" fill="white"/>
<path d="M154.72 29.7315C154.462 28.9692 154.652 28.6216 154.977 28.4535C155.482 28.1956 156.065 28.431 156.255 28.4535C156.368 28.4647 159.338 29.5073 164.529 31.7495C167.915 28.3862 170 23.7224 170 18.5766C170 8.31855 161.682 0 151.424 0H70.9736C60.7155 0 52.397 8.31855 52.397 18.5766C52.397 28.8346 60.7155 37.1532 70.9736 37.1532H151.424C153.486 37.1532 155.471 36.8169 157.321 36.189C155.482 31.9513 154.753 29.8212 154.72 29.7315Z" fill="#2D1959"/>
<path d="M156.96 30.4346C156.743 30.4917 156.726 30.6263 156.743 30.7462C156.707 30.9772 161.788 42.3944 161.872 42.5099C162.021 42.7117 162.348 42.6893 162.461 42.4696C162.48 42.4337 162.723 41.6545 163.003 40.7386C163.582 38.8327 163.626 38.6993 163.736 38.4829C163.974 38.0087 164.395 37.586 164.869 37.3495C165.085 37.2396 165.219 37.1959 167.125 36.6163C168.041 36.336 168.82 36.0939 168.856 36.0748C169.077 35.9627 169.098 35.6342 168.896 35.4851C168.768 35.3921 157.367 30.5041 157.252 30.4917C157.252 30.4906 157.023 30.3953 156.96 30.4346Z" fill="#FFAF30"/>
<path d="M84.2937 11.5762C82.4732 11.5762 81.1492 12.183 80.2941 13.3967C79.4942 12.183 78.2806 11.5762 76.6807 11.5762C74.9706 11.5762 73.7294 12.1278 72.9846 13.2312V11.9623H68.8472V25.7538H72.9846V17.9754C72.9846 16.348 73.7845 15.3826 75.1361 15.3826C76.4325 15.3826 77.1221 16.2377 77.1221 17.6444V25.7538H81.2595V17.9754C81.2595 16.348 82.0594 15.3826 83.411 15.3826C84.7074 15.3826 85.397 16.2377 85.397 17.6444V25.7538H89.5344V17.2859C89.5344 15.5481 89.0655 14.169 88.1001 13.1484C87.1347 12.1002 85.8659 11.5762 84.2937 11.5762Z" fill="white"/>
<path d="M104.168 24.0437C105.575 22.637 106.292 20.8992 106.292 18.8581C106.292 16.8169 105.575 15.1068 104.168 13.7001C102.762 12.2933 101.024 11.5762 98.9827 11.5762C96.9415 11.5762 95.2038 12.2933 93.7971 13.7001C92.3903 15.1068 91.6732 16.8169 91.6732 18.8581C91.6732 20.8992 92.3903 22.637 93.7971 24.0437C95.2038 25.4504 96.9415 26.14 98.9827 26.14C101.024 26.14 102.762 25.4504 104.168 24.0437ZM96.7209 21.2026C96.1141 20.5958 95.8106 19.8235 95.8106 18.8581C95.8106 17.8927 96.1141 17.1204 96.7209 16.5135C97.3277 15.9067 98.0725 15.6033 98.9827 15.6033C99.8929 15.6033 100.638 15.9067 101.244 16.5135C101.851 17.1204 102.155 17.8927 102.155 18.8581C102.155 19.8235 101.851 20.5958 101.244 21.2026C100.638 21.8095 99.8929 22.1129 98.9827 22.1129C98.0725 22.1129 97.3277 21.8095 96.7209 21.2026Z" fill="white"/>
<path d="M116.714 11.5762C114.921 11.5762 113.597 12.1278 112.77 13.2587V11.9623H108.632V25.7538H112.77V18.2237C112.77 16.348 113.763 15.3826 115.335 15.3826C116.742 15.3826 117.735 16.2653 117.735 17.8927V25.7538H121.872V17.2859C121.872 15.493 121.376 14.1138 120.383 13.0932C119.417 12.0727 118.176 11.5762 116.714 11.5762Z" fill="white"/>
<path d="M138.202 20.5131C138.312 19.989 138.367 19.4373 138.367 18.8581C138.367 16.7894 137.705 15.0516 136.354 13.6725C135.03 12.2657 133.375 11.5762 131.361 11.5762C129.21 11.5762 127.444 12.2657 126.065 13.6725C124.714 15.0516 124.024 16.7894 124.024 18.8581C124.024 20.9544 124.714 22.6921 126.093 24.0713C127.499 25.4504 129.347 26.14 131.664 26.14C134.312 26.14 136.326 25.2022 137.678 23.299L134.368 21.3957C133.733 22.0853 132.851 22.4439 131.72 22.4439C129.982 22.4439 128.879 21.8095 128.41 20.5131H138.202ZM128.327 17.4238C128.741 15.9619 129.734 15.2447 131.333 15.2447C132.878 15.2447 133.844 15.9619 134.257 17.4238H128.327Z" fill="white"/>
<path d="M146.271 20.4027L143.209 11.9623H138.658L144.147 25.1194C143.513 26.802 142.602 27.4088 140.699 27.4088V31.2704C144.588 31.4635 147.016 29.6706 148.56 25.3401L153.277 11.9623H148.864L146.271 20.4027Z" fill="white"/>
</svg>
